<svg version="1.2" xmlns="http://www.w3.org/2000/svg" viewBox="0 0 2507 630" width="127" height="32"><style>.a{fill:#7474dd}.b{fill:#000000}</style><path class="a" d="m271.3 299.8q37.7 17.6 58.5 46.1 21.4 28 21.4 65 0 72.8-48.1 107.3-47.4 33.8-118.9 33.8h-159.3v-478.4h140.4q76.1 0 119.6 31.2 43.6 30.5 43.6 89 0 35.8-15 63.1-14.9 26.6-42.2 42.9zm-152.1-135.2v104.6h57.2q26 0 40.3-15.6 14.3-16.2 14.3-39.6 0-24.1-16.3-36.4-16.2-13-44.8-13zm60.4 299.6q33.2 0 53.3-13 20.8-13.6 20.8-40.3 0-50.7-80.6-50.7h-53.9v104zm392.6 18.2q27.3 0 56.5-18.8l40.3 67.6q-23.4 13-49.4 20.8-26 7.8-49.4 7.8-50.7 0-87.7-18.9-36.4-19.5-55.3-53.9-18.8-35.1-18.8-80 0-41.6 21.4-76.7 22.1-35.1 59.8-55.2 37.7-20.8 82.6-20.8 61.1 0 100.1 35.7 39.6 35.8 51.3 102.1l-208 66.3q20.8 24 56.6 24zm-7.2-157.3q-30.5 0-48.7 20.8-18.2 20.8-18.2 55.9v5.9l124.8-42.3q-13.7-40.3-57.9-40.3z"/><path class="b" d="m804.9 552v-478.4h143q91.7 0 150.8 35.7 59.2 35.1 85.8 91.7 27.3 55.9 27.3 120.2 0 68.9-32.5 121.6-32.5 52.6-87.7 81.2-54.6 28-120.3 28zm94.3-91h55.9q73.4 0 116.3-37.7 42.9-37.7 42.9-108.6 0-57.2-24-91-23.4-33.8-55.3-46.8-31.2-13-59.1-13h-76.7zm481-128q11.7-22.8 31.8-41 20.8-18.2 42.3-27.9 21.4-10.4 33.8-10.4l-4.6 91q-3.9-0.7-11-0.7-27.3 0-48.1 14.3-20.8 14.3-31.9 37.1-11 22.1-11 45.5v111.1h-90.4v-284h81.9zm177.5-65h91v284h-91zm-2-100.7q0-19.5 15-32.5 15.6-13.7 35.1-13.7 18.8 0 33.8 13.7 14.9 13 14.9 32.5 0 19.5-14.9 32.5-15 13-33.8 13-19.5 0-35.1-13-15-13-15-32.5zm379 100.7h101.4l-161.2 289.9-2.6 0.1-170.3-290h107.9l66.3 135.2zm286.6 214.5q27.3 0 56.6-18.8l40.3 67.6q-23.4 13-49.4 20.8-26 7.8-49.4 7.8-50.7 0-87.8-18.8-36.4-19.5-55.2-54-18.9-35.1-18.9-80 0-41.6 21.5-76.6 22.1-35.2 59.8-55.3 37.7-20.8 82.5-20.8 61.1 0 100.1 35.8 39.7 35.7 51.4 102l-208 66.3q20.8 24 56.5 24zm-7.1-157.3q-30.6 0-48.8 20.8-18.2 20.9-18.2 56v5.8l124.8-42.3q-13.6-40.3-57.8-40.3zm187.8 180.1q0-19.5 14.3-33.1 14.3-14.3 32.5-14.3 16.9 0 31.2 14.3 14.3 13.6 14.3 33.1 0 20.2-14.3 33.8-13.6 13-31.2 13-18.2 0-32.5-13-14.3-13-14.3-33.8z"/></svg>