<svg version="1.1" id="Layer_1" xmlns="http://www.w3.org/2000/svg" xmlns:xlink="http://www.w3.org/1999/xlink" x="0px" y="0px"
	 viewBox="0 0 512 512" style="enable-background:new 0 0 512 512;" xml:space="preserve">
<g fill="currentColor" class="">
	<path  d="M359.47,0H152.51C68.31,0.1,0.09,68.35-0.01,152.54v206.94c0.1,84.2,68.35,152.44,152.54,152.52h206.96
		c84.2-0.1,152.42-68.35,152.52-152.54V152.52C511.91,68.32,443.67,0.08,359.47,0z M460.5,359.46
		c0,55.82-45.23,101.05-101.03,101.05H152.51c-55.8-0.03-101-45.25-101-101.05V152.52c0-55.8,45.23-101.03,101.03-101.03h206.96
		c55.8,0.03,101,45.25,101,101.05v206.94V359.46z"/>
	<path d="M255.99,123.59c-73.08,0.1-132.28,59.33-132.38,132.38c0.08,73.1,59.3,132.33,132.41,132.43
		c73.1-0.08,132.36-59.33,132.43-132.43c-0.13-73.08-59.35-132.31-132.46-132.36V123.59z M255.99,336.92
		c-44.68,0.03-80.92-36.21-80.92-80.89c-0.03-44.68,36.19-80.92,80.89-80.92h0.03c44.68,0,80.89,36.24,80.89,80.92
		S300.67,336.92,255.99,336.92z"/>
	<path d="M388.67,92.86c17.53,0,31.73,14.2,31.73,31.71c0,17.53-14.2,31.73-31.73,31.73c-17.51,0-31.73-14.2-31.73-31.73
		C356.94,107.06,371.16,92.86,388.67,92.86z"/>
</g>
</svg>
