<svg version="1.1" id="Layer_1" xmlns="http://www.w3.org/2000/svg" x="0px" y="0px"
	 viewBox="0 0 512 512" style="enable-background:new 0 0 512 512;" xml:space="preserve">
<g fill='#000000'>
	<path d="M111.1,511.1H1.8V146.7h109.3V511.1z M512,511.1H402.7V316.4c0-50.7-18.1-76-53.9-76c-28.4,0-46.4,14.1-55.4,42.4v228.2
		H184c0,0,1.5-328,0-364.4h86.3l6.7,72.9h2.3c22.4-36.4,58.2-61.2,107.4-61.2c37.3,0,67.6,10.4,90.6,36.5
		C500.5,221,512,256.1,512,305.3V511.1z"/>
	<path d="M56.5,0.9c31.2,0,56.5,24.5,56.5,54.7s-25.3,54.7-56.5,54.7S0,85.8,0,55.6S25.3,0.9,56.5,0.9z"/>
</g>
</svg>
