<svg version="1.2" xmlns="http://www.w3.org/2000/svg" viewBox="0 0 166 150" width="166" height="150"><style>.a{fill:#007a91}.b{fill:#fff}.c{fill:#54bbab}.d{fill:#5bc5f2}.e{fill:#007e92}.f{fill:#e42313}</style><path class="a" d="m0.4 218.3c-1.3-0.4-2.9-2-3.2-3.4-1.1-3.9 1.7-6.5 7.5-7.1 2.7-0.3 2.8-0.4 2.8-1 0-2.3-2.9-3-6.3-1.5-0.8 0.4-1.5 0.7-1.5 0.6 0 0-0.4-0.7-0.8-1.4l-0.8-1.4 0.6-0.5c1.1-1 4-1.7 6.3-1.7 3.4 0 5.4 1.1 6.5 3.7 0.2 0.4 0.4 2.6 0.5 5.5l0.1 4.8h1.2l1.1 0.1-0.1 1.7v1.6l-2 0.1c-2.7 0.1-3.8-0.3-4.3-1.3l-0.3-0.8-0.8 0.8c-1.6 1.5-4.2 2-6.5 1.2zm5.1-3.6c1-0.6 2-2.4 2-3.5 0-0.7-0.1-0.7-1.3-0.7-2.8 0-5.1 1.5-4.7 3 0.5 1.7 2.3 2.3 4 1.2zm15.2 3.4c-2.3-1.2-2.9-2.9-2.9-9.2v-4.2l-1.2-0.1-1.3-0.1-0.1-1.6v-1.7h3.5 3.6l0.1 6.1 0.1 6.1 0.7 0.7c2 1.7 5.3-0.3 6-3.6 0.1-0.8 0.3-2.4 0.3-3.6v-2.2h-1.4-1.3v-1.7-1.8h3.6 3.6v6.8l0.1 6.9h1l1 0.1v1.7 1.7h-2.2c-1.2 0-2.6-0.1-3-0.2-0.8-0.3-1.4-1.2-1.4-2 0-0.3-0.5 0-1.1 0.6-1.9 1.9-5.3 2.5-7.7 1.3zm51.2 0.4c-5.3-1.5-7.9-6.8-6-12.3 0.5-1.5 2.4-3.7 3.8-4.4 1.6-0.9 4.1-1.2 5.8-0.9 3.8 0.8 6.1 3.9 6.1 8.2v1.4h-5.8c-5.7 0-5.9 0-5.9 0.5 0 1.5 1.7 3.3 3.5 3.7 1.4 0.4 2.9 0.2 4.8-0.8l1.5-0.7 0.8 1.4c0.5 0.8 0.8 1.6 0.8 1.7 0 0.1-0.9 0.7-1.9 1.2-1.8 0.9-2.3 1-4.3 1.1-1.3 0-2.7 0-3.2-0.1zm4.9-11.5c0-0.6-0.2-1.1-0.9-1.7-0.8-0.8-1-0.9-2.2-0.9-1 0-1.5 0.2-2.2 0.7-0.8 0.7-1.6 1.9-1.6 2.5 0 0.1 1.3 0.2 3.5 0.2h3.4zm46.1 11.3c-4-1.2-6.1-4.2-6.1-8.6 0-4.7 2.5-7.9 7-8.7 1.7-0.4 3.2-0.2 4.9 0.6 2.6 1.1 4 3.3 4.2 6.7l0.1 2.2h-5.9c-4.5 0-5.8 0.1-5.8 0.3 0 0.8 1 2.6 1.7 3.1 1.7 1.3 4.1 1.4 6.6 0.1 1-0.5 1.5-0.7 1.7-0.5 0.4 0.5 1.4 2.5 1.4 2.8 0 0.4-2.3 1.6-3.9 2-1.9 0.5-4.3 0.5-5.9 0zm5.4-11.3c-0.4-1.7-1.4-2.6-3.2-2.6-1 0-2.2 0.5-2.7 1.2-0.2 0.2-0.5 0.8-0.7 1.3l-0.4 1h3.6 3.6zm-84.2 11c-1.6-0.5-2.7-1.4-3.4-2.9-0.6-1.2-0.7-1.5-0.7-5.9v-4.5l-1.2-0.1-1.3-0.1-0.1-1.6v-1.7h1.3 1.3l0.1-2.3 0.1-2.3h2.1 2.1l0.1 2.3 0.1 2.3h1.8 1.8v1.7 1.7h-1.8-1.9v4c0 2.4 0.2 4.2 0.3 4.6 0.4 0.8 1.7 1.5 2.9 1.5h0.8v1.9 1.8h-1.6c-1 0-2.2-0.2-2.8-0.4zm6.8-1.3v-1.7h1.2 1.2v-5.2-5.1l-1.3-0.1-1.2-0.1-0.1-1.6-0.1-1.7h2.9c3.5 0 4 0.3 4 2.3v1.3l0.7-1.1c0.9-1.6 2.4-2.5 4.1-2.6h1.4l0.1 2.1 0.1 2.2-1.6 0.1c-2 0.1-2.8 0.7-3.7 2.5-0.6 1.1-0.7 1.7-0.8 4.1l-0.1 2.9h1.2 1.2v1.7 1.7h-4.6-4.6c0 0 0-1.7 0-1.7zm33.2 1.5c-0.1-0.1-0.1-0.8-0.1-1.7v-1.5h1.3 1.3v-4.8c0-2.6-0.1-4.9-0.2-5.1-0.1-0.3-0.5-0.5-1.3-0.5h-1.1v-1.7-1.7h2.7c2.7 0 2.9 0.1 3.5 0.7 0.3 0.3 0.6 0.9 0.6 1.2 0 0.6 0.1 0.6 1.2-0.5 2.9-2.8 7.2-2.3 8.9 0.9l0.3 0.6 0.6-0.7c1.3-1.7 3-2.5 5.2-2.6 2.3 0 3.8 0.8 4.7 2.6 0.7 1.3 0.7 1.6 0.8 6.5l0.1 5.1h1.1 1.2v1.7 1.7h-3.4-3.4l-0.1-6.2-0.1-6.3-0.7-0.5c-0.5-0.4-0.9-0.5-1.8-0.4-2.4 0.3-3.7 2.8-3.7 7.4v2.6h1.2 1.2v1.7 1.7l-3.4-0.1h-3.4l-0.1-6.2c-0.1-5.5-0.2-6.1-0.6-6.6-0.7-0.8-2.2-0.8-3.3-0.1-1.5 1-2.2 3-2.4 6.6l-0.1 3h1.3 1.4l-0.1 1.6v1.7h-4.6c-2.4 0.1-4.6 0-4.7-0.1zm51.5-1.5v-1.7h1.1 1.2v-5.1l-0.1-5.1-1.3-0.1-1.2-0.1v-1.7-1.7h2.9c2.6 0 2.9 0.1 3.4 0.6 0.3 0.3 0.6 0.9 0.6 1.4v0.7l0.9-1c1.5-1.4 3-2.1 5.3-2.1 2.1 0 3.1 0.4 4.3 1.8 1.1 1.3 1.4 2.9 1.4 8v4.4h1.2 1.2v1.7 1.7l-3.4-0.1h-3.4l-0.1-6c-0.2-7.2-0.3-7.4-2.6-7.4-1.6 0-3 1-3.8 2.6-0.7 1.3-0.8 1.7-0.8 4.5v3h1.2 1.2v1.7 1.7h-4.6-4.6zm28.2 1.2c-1.7-0.6-2.5-1.4-3.2-2.9-0.5-1-0.6-1.8-0.7-5.8l-0.1-4.5h-1.1-1.2v-1.8-1.7h1.3 1.4v-2.4-2.3h2.1 2.1v2.3 2.4h2 2v1.7 1.8h-2-2v3.7c0 4.4 0.3 5.3 1.7 5.9 0.5 0.2 1.3 0.4 1.7 0.4h0.8v1.9 1.8h-1.8c-1.1 0-2.2-0.2-3-0.5zm-44.6-25.8c-0.2-0.1-0.3-0.5-0.3-0.9 0-0.8 0-0.8 1.3-0.8 2.2 0 2.5-1.5 0.4-2-0.9-0.2-1-0.3-0.8-1.2 0.3-1.6 0.3-1.7-0.6-1.9-2.6-0.5-4.9-2.6-5.9-5.2-0.8-2.1-0.6-5.4 0.3-7.3q1.4-2.7 4.1-4c2.8-1.3 7-1 9 0.8 1 0.8 1 1 1 2.4v1.6l-1.1 0.1h-1.1v-0.9c0-2.3-3.8-3.3-6.8-1.8-4.5 2.2-4.6 9.2-0.1 11.5 2.4 1.2 5.4 1 7.6-0.7 0.5-0.4 0.9-0.7 0.9-0.7 0.1 0 0.4 0.4 0.6 1l0.6 0.9-0.7 0.5c-1.1 0.9-2.6 1.6-4.2 1.9-1.8 0.5-2.1 1.2-0.7 1.9 1.7 0.8 1.9 3.1 0.4 4.2-0.7 0.5-3.2 0.9-3.9 0.6zm-139.4-6.9c-3.3-0.9-6-3.2-7.4-6-1.1-2.2-1.4-3.5-1.4-5.9 0-7.5 6.3-12.9 13.8-11.8 2.9 0.4 4.8 1.2 5.9 2.4 0.9 1 0.9 1.2 0.9 2.9v1.9h-1.2-1.2v-1.2c0-2.4-2.2-3.7-6.3-3.7-1.9 0-2.5 0.1-3.7 0.7-2.1 1-3.6 2.4-4.6 4.4-0.8 1.6-0.8 2-0.8 4.4 0 2.4 0 2.8 0.8 4.4 1.6 3.4 4.2 5.2 7.7 5.5 2.4 0.1 5-0.4 6.3-1.4 0.8-0.7 0.9-0.8 0.9-2.1v-1.5h1.2 1.2v2c0 2 0 2.1-1 3-2.1 2-7.7 3-11.1 2zm21.4-0.1c-3.7-1.3-5.9-4.4-5.9-8.2-0.1-2.5 0.6-4.2 2.2-6 1.9-2.1 3.7-2.9 6.5-2.9 1.9 0 2.5 0.1 3.8 0.7 2.1 1 3.3 2.2 4.3 4.2 0.7 1.5 0.8 2 0.8 3.8 0 3.7-1.6 6.4-4.8 7.9-2.2 1.1-4.7 1.3-6.9 0.5zm5.8-2.5c4.6-2.4 4.5-9.3-0.1-11.6-3.9-2-8.4 0.5-9.1 4.9-0.3 2.5 1.2 5.6 3.6 6.8 1.4 0.8 3.9 0.7 5.6-0.1zm80.7 2.7c-0.5-0.2-1.3-0.5-1.7-0.7-1.2-0.5-2.7-2.1-3.5-3.7-0.7-1.3-0.8-1.8-0.8-4 0-3.1 0.5-4.6 2.2-6.4 2-2.2 5.2-3.1 8.1-2.2 2.9 0.8 4.6 3.2 4.9 6.7l0.1 1.9h-6.4-6.4v0.6c0 3.2 2.8 5.7 6.3 5.7 1.7 0 2.4-0.2 4.1-1.2l1-0.6 0.5 0.9c0.6 0.9 0.6 1 0.1 1.4-0.2 0.2-1.1 0.7-1.9 1.1-1.8 0.8-5.1 1.1-6.6 0.5zm6.6-10.9c0-1-1.1-2.9-2.1-3.5-2.9-1.9-6.7-0.2-7.8 3.5l-0.2 0.6h5 5.1zm39.8 10.9c-3.4-1.2-4.6-5.2-2.3-7.9 1.3-1.5 4.8-2.6 8.5-2.6h1.3v-1.1c0-1.4-0.6-2.5-1.6-3-1.2-0.7-4-0.5-5.7 0.4l-1.4 0.7-0.5-0.9c-0.5-0.8-0.5-1-0.2-1.2 3.3-2.3 8.6-2.3 10.5 0 1.3 1.4 1.4 2.1 1.6 7.9l0.1 5.5 1.1 0.1c1.2 0.1 1.2 0.1 1.2 1.1v1.1h-1.5c-1.5 0-2.8-0.4-3.1-0.9-0.1-0.2-0.2-0.7-0.2-1.2v-0.9l-0.9 1.1q-2 2.1-4.7 2.1c-0.8 0-1.8-0.1-2.2-0.3zm4.8-2.5c1.5-0.9 2.5-2.5 2.7-4.6l0.1-1.6-2.1 0.2c-4.8 0.4-6.8 1.7-6.3 4.1 0.1 0.9 1.2 2.1 2 2.4 1 0.4 2.5 0.2 3.6-0.5zm47.3 2.6c-2.5-0.7-4.1-2.3-4.1-4.5v-1.1h1.2c1.2 0 1.2 0 1.2 0.9 0 1.4 0.9 2.1 2.8 2.5 2.8 0.6 5.1-0.5 5.1-2.3 0-1.1-1.1-2-3.5-3-4.7-1.8-6-2.9-6-5.4 0-1.7 0.8-2.9 2.5-3.8 2.3-1.2 6.4-0.8 8.1 0.8 0.7 0.6 0.8 0.9 0.8 2.3v1.7h-1.1c-1 0-1-0.1-1-0.8 0-0.5-0.3-1.1-0.7-1.5-0.5-0.7-0.8-0.8-2.3-0.9-2-0.1-3.2 0.4-3.6 1.5-0.5 1.6 0.6 2.6 4.3 4 2.8 1.1 4 1.9 4.6 3.2 1.2 2.3 0.4 4.6-2.2 5.9-1.1 0.6-4.7 0.9-6.1 0.5zm-170.5-1.1v-1.1h1.3 1.3v-6.3-6.4h-1.4-1.5v-1-1.1h2.2c2.6 0 3.1 0.3 3.3 1.8l0.2 1.2 0.7-0.9c0.9-1.1 3-2.3 4.5-2.5 2.3-0.3 4.6 0.8 5.3 2.6 0.2 0.5 0.4 0.9 0.4 1 0 0 0.6-0.5 1.2-1.2 0.6-0.7 1.6-1.5 2.1-1.7 2.2-1.1 5-0.9 6.6 0.4 1.6 1.4 1.7 1.8 1.8 8.3l0.1 5.8h1.4 1.5v1.1 1.1h-2.7-2.6l-0.1-6.3c-0.1-5.4-0.1-6.4-0.5-7.2-1.3-2.3-5-2.1-6.8 0.5-1.3 1.8-1.6 3.3-1.6 7.3v3.5h1.4 1.5l-0.1 1-0.1 1-2.5 0.1-2.6 0.1-0.1-6.3c0-5.8-0.1-6.4-0.6-7.2-1-1.7-2.8-2.1-4.9-1-1.3 0.6-2.7 2.5-3.1 4.1-0.2 0.5-0.3 2.6-0.3 4.6v3.6h1.3 1.3v1.1 1.1h-3.9-4c0 0 0-1.1 0-1.1zm32.8 0v-1.1h1.5 1.4v-6.2l-0.1-6.3-1.4-0.1-1.4-0.1v-1-1.1h2.2c2.6 0 3.1 0.3 3.1 2v1.1l1.4-1.4c1.9-1.8 3.8-2.4 5.9-2 1.9 0.4 2.6 0.9 3.4 2.4l0.6 1.3 0.6-0.9c1.4-2.2 4.4-3.4 6.9-2.8 1.8 0.4 2.8 1.2 3.5 2.7 0.5 1.1 0.6 1.8 0.7 6.8l0.1 5.6h1.3 1.3v1.1 1.1h-2.7-2.6v-6.1c0-6.8-0.2-7.8-1.6-8.6-2.1-1.2-4.9 0.1-6.5 2.9-0.5 0.9-0.5 1.6-0.6 5.3l-0.1 4.3h1.3 1.4v1.1 1.1l-2.6-0.1-2.6-0.1-0.1-6.5c-0.1-5.6-0.2-6.5-0.6-7.1-1.3-1.9-4.3-1.7-6.2 0.3-1.6 1.7-2 3.1-2.2 7.4l-0.1 3.9h1.5 1.5v1.1 1.1h-4.1-4.1zm51.5 0.8c-0.1-0.1-0.2-0.5-0.2-1v-0.9h1.4 1.3v-6.3-6.4h-1.5-1.4v-1.1-1h2.2c2.7 0 3.1 0.3 3.1 2.2v1.3l0.7-1.2c1.2-1.6 2.4-2.4 4.1-2.4h1.4v1.1 1.2l-1.4 0.2c-1.5 0.2-2.4 0.7-3.2 2-1.1 1.5-1.4 3.1-1.4 6.9v3.5h1.2 1.2v1.1 1h-3.7c-2 0-3.7-0.1-3.8-0.2zm49-0.8v-1.1h1.4 1.3v-6.3-6.4h-1.5-1.4v-1.1-1h2.2c1.2 0 2.3 0.1 2.4 0.2 0.5 0.3 0.9 1.3 0.9 2.1v0.7l0.8-1c0.5-0.5 1.5-1.3 2.4-1.7 1.9-0.9 4.9-1 6.4-0.2 2.1 1.3 2.6 3.1 2.6 9.8v4.9h1.3 1.4v1.1 1h-2.6l-2.6-0.1-0.1-6.4c-0.2-6.5-0.3-7.2-1.3-8-0.7-0.5-2.3-0.6-3.6-0.3-1.6 0.4-3.3 1.9-4 3.6-0.6 1.2-0.7 1.7-0.7 5.2v3.9h1.4 1.3v1.1 1h-4-4c0 0 0-1 0-1zm27.7 0.7c-1.4-0.5-2.3-1.3-2.9-2.7-0.6-1.3-0.7-1.6-0.7-6.6v-5.2h-1.4-1.5v-1.1-1h1.5 1.4v-2.4-2.4h1.2 1.2v2.4 2.4h2.1 2.1v1 1.1h-2.1-2.1v4.4c0 2.5 0.1 4.9 0.3 5.5 0.4 1.5 1.5 2.5 3 2.7 1.2 0.2 1.2 0.2 1.2 1.2v1h-1.3c-0.6 0-1.6-0.2-2-0.3z"/><path class="b" d="m82.6 138c-36.2 0-65.4-29.2-65.4-65.3 0-36 29.2-65.2 65.4-65.2 36.1 0 65.4 29.2 65.4 65.2 0 36.1-29.3 65.3-65.4 65.3z"/><path class="c" d="m92.7 0.6c-2-0.1-3-0.2-4.9-0.2q5.2 0.2 10.5 1.2c37.2 7.2 61.1 44.7 53.2 83.7-7.8 39-44.3 64.8-81.6 57.6q-2.4-0.5-4.8-1.2c6.3 2 13.1 3 20.3 3 7.1 0 12.7-1 18-2.1 23-5.3 41.6-21.4 50.9-41.6 3.9-8.8 6.1-18.5 6.1-28.8 0-39.9-31.3-68.5-67.7-71.6z"/><path class="d" d="m7.5 66.8c-2.7 39.3 27.7 73.5 69.2 77q-3.4-0.3-6.8-0.9c-37.2-7.3-61-44.8-53.2-83.8 7.8-38.7 43.9-64.4 80.8-57.7q-4.6-0.9-9.4-1.2c-42.2-2.9-77.8 26.9-80.6 66.6z"/><path class="e" d="m98.3 1.6c-37.2-7.3-73.8 18.5-81.6 57.5-7.8 39 16 76.5 53.2 83.8 37.3 7.2 73.8-18.6 81.6-57.6 7.9-39-16-76.5-53.2-83.7zm-15.7 136.4c-36.2 0-65.4-29.2-65.4-65.3 0-36 29.2-65.2 65.4-65.2 36.1 0 65.4 29.2 65.4 65.2 0 36.1-29.3 65.3-65.4 65.3z"/><path class="f" d="m118.9 41.6h-22.4c-4.1 0-4.7 1.7-4.7 4.2 0 0 0 36.3 0 36.3-0.2 8.4-3.3 11-9.3 11-6.1 0-9.2-2.8-9.3-11.6v-35.7c0-2.5-0.6-4.2-4.7-4.2h-22.4v43.2c0 9.6 1.9 13.7 5.8 17.8 6.2 6.4 16.9 9 30.6 9 13.7 0 24.5-2.6 30.6-9 4-4.1 5.8-8.2 5.8-17.8z"/></svg>
