<svg version="1.2" xmlns="http://www.w3.org/2000/svg" viewBox="0 0 107 27" width="107" height="27"><style>.a{fill:#4a835b}.b{fill:#fff}.c{fill:#00985f}.d{fill:#e0001a}</style><path class="a" d="m27.5 7.6h-2.1l-0.6 0.7c-0.1 0.1 0 0.2 0.1 0.2l0.7 0.3 1.9-0.9q0.1 0 0.1-0.1 0 0 0-0.1 0 0 0 0-0.1-0.1-0.1-0.1z"/><path fill-rule="evenodd" class="b" d="m23.3 8.8c-0.3 0.2-0.6 0.2-0.9 0-0.2-0.2-0.2-0.6 0-0.8 0.3-0.3 0.6-0.3 0.9 0 0.2 0.2 0.2 0.6 0 0.8z"/><path class="c" d="m19.6 18.1h-2.7q-0.2 0.1-0.4 0.2-0.2 0.1-0.5 0.3-0.2 0.1-0.4 0.2-0.2 0.1-0.5 0.1c0 0.1-0.1 0.1 0 0.2l2.3 6.5h1.3l-2.2-5.9h0.1c1.4 0 4.7-0.4 6.5-3.3q-0.3 0.4-0.7 0.7-0.4 0.4-0.8 0.6-0.5 0.2-1 0.3-0.5 0.1-1 0.1zm0.3-3.9q0.3-0.3 0.5-0.7c-0.1 0-0.2-0.1-0.2 0q-0.7 0.8-1.5 1.4-0.9 0.6-1.8 1-1 0.4-2 0.6-1 0.2-2.1 0.2h-3c-0.1 0-0.2-0.1-0.1-0.2q0.7-1 1.5-2 0.8-1 1.7-1.9 0.9-1 1.8-1.9 1-0.9 1.9-1.7l-5.1 4.3q-0.2 0.2-0.4 0.3-0.2 0.1-0.4 0.2-0.2 0-0.4 0.1-0.2 0-0.4 0h-6.5c-0.2 0-0.1 0.1-0.1 0.2q0.2 0.6 0.6 1.1 0.3 0.5 0.9 0.9 0.5 0.4 1.1 0.5 0.6 0.2 1.2 0.2l-1.5 1.6c-0.1 0-0.1 0.2 0.1 0.2h5.8q1.2 0.1 2.5-0.2 1.2-0.3 2.3-0.9 1.1-0.5 2.1-1.4 0.9-0.8 1.5-1.9zm-1.7 6.6l1.8 4.8h1.3l-1.9-5.1q-0.1 0-0.3 0.1-0.1 0-0.3 0-0.1 0.1-0.3 0.1-0.1 0-0.3 0.1zm9.3-13.2h-2.1l-0.6 0.7c0 0.1 0 0.2 0.1 0.2l0.7 0.3 2-0.9q0 0 0-0.1 0 0 0-0.1 0 0 0 0-0.1-0.1-0.1-0.1zm-4.2 1.2c-0.2 0.2-0.5 0.2-0.7 0.1-0.2-0.1-0.3-0.3-0.3-0.5 0-0.3 0.1-0.5 0.3-0.6 0.2-0.1 0.5 0 0.7 0.1-0.4-0.4-1.1-0.4-1.5 0.1-0.4 0.4-0.4 1 0 1.5 0.4 0.4 1.1 0.4 1.5 0 0.4-0.5 0.4-1.1 0-1.5q0.1 0 0.1 0.1 0 0.2 0 0.3 0 0.1 0 0.2 0 0.1-0.1 0.2z"/><path fill-rule="evenodd" class="b" d="m23.2 8.7c-0.2 0.2-0.5 0.2-0.7 0-0.2-0.2-0.2-0.5 0-0.7 0.2-0.2 0.5-0.2 0.7 0 0.2 0.2 0.2 0.5 0 0.7z"/><path class="d" d="m23.1 16.4q0.5-0.9 0.9-1.8 0.4-0.9 0.7-1.9 0.3-0.9 0.5-1.9 0.2-1 0.4-2l-0.7-0.3c-0.1 0-0.1-0.1-0.1-0.2l0.6-0.7q-0.3-0.4-0.6-0.7-0.4-0.3-0.8-0.5-0.4-0.2-0.9-0.3-0.5-0.1-0.9-0.1-0.4 0-0.7 0-0.4 0.1-0.7 0.2-0.4 0.1-0.7 0.2-0.3 0.2-0.6 0.4-0.4 0.2-0.8 0.5-0.3 0.3-0.7 0.5-0.3 0.3-0.7 0.6-0.3 0.3-0.7 0.6-1 0.8-1.9 1.7-0.9 0.9-1.8 1.9-0.9 0.9-1.7 1.9-0.8 1-1.6 2c0 0.1 0.1 0.2 0.1 0.2h3.1q1.1 0 2.1-0.2 1-0.2 2-0.6 0.9-0.4 1.8-1 0.8-0.6 1.5-1.4 0 0 0 0 0 0 0.1-0.1 0 0 0 0.1 0 0 0.1 0 0 0 0 0 0 0 0 0.1 0 0 0 0 0 0 0 0.1-0.3 0.6-0.6 1.3-0.4 0.6-0.8 1.1-0.4 0.6-0.9 1.1-0.6 0.5-1.1 0.9h2.6q0.5 0 1-0.1 0.5-0.1 1-0.3 0.4-0.2 0.8-0.6 0.4-0.3 0.7-0.7zm-1.3-6.9c-0.3-0.3-0.4-0.8-0.3-1.2 0.2-0.4 0.6-0.7 1-0.7 0.4 0 0.8 0.3 1 0.7 0.2 0.4 0.1 0.9-0.2 1.2q-0.2 0.1-0.4 0.2-0.2 0.1-0.4 0.1-0.2 0-0.4-0.1-0.2-0.1-0.3-0.2zm2.4 7.5q-0.3 0.5-0.7 1-0.4 0.5-0.9 0.9-0.4 0.3-0.9 0.7-0.6 0.3-1.1 0.5l1.9 5.5h5.8c-1.2-3.3-2.4-6.6-3.6-9.5-0.1 0.3-0.3 0.6-0.5 0.9zm-21.2 8.6h5.8l1.9-5.8h-5.7q-0.9 2.6-2 5.8zm7.6-13.3l3.4-2.8c0.5-1.5 1.1-2.9 1.7-4.2q0.4 1 0.9 2.1c1.3-1.1 2.1-1.7 2.2-1.7q0.2-0.1 0.4-0.3 0.2-0.1 0.4-0.2 0.2-0.1 0.4-0.2 0.3 0 0.5-0.1c-0.8-1.7-1.3-2.9-1.6-3.4h-6.5c-0.5 1.2-2.5 5.4-4.9 11h2.4q0.1 0 0.2 0 0.1 0 0.2 0 0.1-0.1 0.2-0.1 0.1 0 0.1-0.1z"/><path class="d" d="m35.5 22.2q-0.5 0.1-0.9-0.1-0.4-0.1-0.7-0.4-0.4-0.3-0.5-0.8-0.2-0.4-0.1-0.8v-9h-4.7v9.6c0 3.5 1.5 5.3 4.9 5.3"/><path class="d" d="m37.8 21.2q-0.2 0.2-0.5 0.4-0.3 0.2-0.6 0.3-0.3 0.1-0.6 0.2-0.3 0.1-0.6 0.1-0.5 0-0.9-0.1-0.4-0.1-0.7-0.5-0.4-0.3-0.5-0.7-0.2-0.4-0.1-0.9v-9.1h-4.7v9.8c0 3.5 1.5 5.3 4.9 5.3q0.6 0 1.3-0.1 0.7-0.1 1.4-0.3 0.6-0.3 1.2-0.7 0.5-0.4 1-0.9l0.3 1.6h3.8v-14.7h-4.7zm15 0.8c-2.4 0-3.6-1.5-3.6-3.7 0-2.2 1.2-3.5 3.5-3.5q0.4 0 0.9 0.1 0.4 0 0.8 0.1 0.4 0.2 0.7 0.3 0.4 0.2 0.8 0.4l0.6-4q-0.5-0.2-1.2-0.4-0.6-0.2-1.2-0.3-0.6-0.2-1.3-0.2-0.6-0.1-1.2-0.1c-4.8 0-7.4 2.8-7.4 7.8 0 5 2.5 7.5 7.2 7.5q0.7 0.1 1.4 0 0.7-0.1 1.4-0.3 0.7-0.1 1.4-0.4 0.6-0.2 1.3-0.6l-0.7-3.7q-0.4 0.2-0.8 0.4-0.4 0.2-0.9 0.3-0.4 0.1-0.9 0.2-0.4 0.1-0.8 0.1zm14.5-11.3q-0.5 0-1.1 0.1-0.6 0-1.1 0.2-0.5 0.2-1.1 0.4-0.5 0.3-0.9 0.6v-6.4h-4.9v20h4.9v-10.1q0.2-0.2 0.4-0.4 0.3-0.2 0.6-0.3 0.3-0.1 0.6-0.2 0.3-0.1 0.6-0.1 0.4 0 0.9 0.1 0.4 0.2 0.7 0.5 0.3 0.3 0.4 0.7 0.2 0.4 0.1 0.9v8.9h4.9v-9.6c0-3.5-1.6-5.3-5-5.3zm32.2 0q-0.7 0-1.4 0.1-0.7 0.1-1.3 0.3-0.7 0.3-1.3 0.7-0.5 0.3-1 0.8l-0.3-1.6h-3.9v14.6h4.9v-10.1q0.2-0.2 0.4-0.4 0.3-0.2 0.6-0.3 0.3-0.1 0.6-0.2 0.3-0.1 0.6-0.1 0.4 0 0.8 0.1 0.5 0.2 0.8 0.5 0.3 0.3 0.4 0.7 0.2 0.4 0.1 0.9v8.9h4.9v-9.6c0-3.5-1.6-5.3-4.9-5.3zm-25.5 8.2c0 5 1.8 7.1 5.4 7.1q0.6 0.1 1.2 0 0.7-0.1 1.3-0.4 0.5-0.2 1.1-0.6 0.5-0.4 0.9-0.9l0.2 1.6h3.9v-14q-0.8-0.3-1.6-0.5-0.8-0.2-1.7-0.3-0.8-0.1-1.7-0.1-0.8-0.1-1.7-0.1c-4.7 0-7.3 3-7.3 8.2zm9.1 2.3q-0.2 0.3-0.5 0.5-0.2 0.2-0.5 0.3-0.3 0.1-0.6 0.2-0.4 0.1-0.7 0c-1.3 0-2-1.1-2-3.4q0-4.3 2.3-4.3 0.3 0 0.5 0 0.3 0.1 0.5 0.1 0.3 0 0.5 0.1 0.3 0 0.5 0.1z"/></svg>
